<?xml version="1.0" encoding="UTF-8" standalone="no"?>
<!DOCTYPE svg PUBLIC "-//W3C//DTD SVG 1.1//EN"
 "http://www.w3.org/Graphics/SVG/1.1/DTD/svg11.dtd">
<!-- Generated by graphviz version 2.40.1 (20161225.0304)
 -->
<!-- Title: dependencies Pages: 1 -->
<svg width="1141pt" height="284pt"
 viewBox="0.00 0.00 1141.00 284.00" xmlns="http://www.w3.org/2000/svg" xmlns:xlink="http://www.w3.org/1999/xlink">
<g id="graph0" class="graph" transform="scale(1 1) rotate(0) translate(4 280)">
<title>dependencies</title>
<polygon fill="#ffffff" stroke="transparent" points="-4,4 -4,-280 1137,-280 1137,4 -4,4"/>
<text text-anchor="start" x="545.5091" y="-42.4" font-family="sans-serif" font-weight="bold" font-size="14.00" fill="#000000">Legend</text>
<polygon fill="#ffffb3" stroke="transparent" points="332.5,-10 332.5,-30 352.5,-30 352.5,-10 332.5,-10"/>
<text text-anchor="start" x="356.129" y="-15.4" font-family="sans-serif" font-size="14.00" fill="#000000"> &#160;Declarations</text>
<polygon fill="#8dd3c7" stroke="transparent" points="445.5,-10 445.5,-30 465.5,-30 465.5,-10 445.5,-10"/>
<text text-anchor="start" x="469.2251" y="-15.4" font-family="sans-serif" font-size="14.00" fill="#000000"> &#160;Module</text>
<polygon fill="#80b1d3" stroke="transparent" points="531.5,-10 531.5,-30 551.5,-30 551.5,-10 531.5,-10"/>
<text text-anchor="start" x="555.2812" y="-15.4" font-family="sans-serif" font-size="14.00" fill="#000000"> &#160;Bootstrap</text>
<polygon fill="#fdb462" stroke="transparent" points="628.5,-10 628.5,-30 648.5,-30 648.5,-10 628.5,-10"/>
<text text-anchor="start" x="652.1732" y="-15.4" font-family="sans-serif" font-size="14.00" fill="#000000"> &#160;Providers</text>
<polygon fill="#fb8072" stroke="transparent" points="724.5,-10 724.5,-30 744.5,-30 744.5,-10 724.5,-10"/>
<text text-anchor="start" x="748.2258" y="-15.4" font-family="sans-serif" font-size="14.00" fill="#000000"> &#160;Exports</text>
<g id="clust1" class="cluster">
<title>cluster_ConfigurationModule</title>
<polygon fill="none" stroke="#000000" stroke-dasharray="1,5" points="8,-70 8,-268 1125,-268 1125,-70 8,-70"/>
</g>
<g id="clust2" class="cluster">
<title>cluster_ConfigurationModule_declarations</title>
<polygon fill="none" stroke="#000000" points="302,-78 302,-130 1117,-130 1117,-78 302,-78"/>
</g>
<g id="clust7" class="cluster">
<title>cluster_ConfigurationModule_imports</title>
<polygon fill="none" stroke="#000000" points="16,-78 16,-130 294,-130 294,-78 16,-78"/>
</g>
<g id="clust8" class="cluster">
<title>cluster_ConfigurationModule_exports</title>
<polygon fill="none" stroke="#000000" points="362,-208 362,-260 610,-260 610,-208 362,-208"/>
</g>
<!-- AccordionGroupComponent -->
<g id="node1" class="node">
<title>AccordionGroupComponent</title>
<polygon fill="#ffffb3" stroke="#000000" points="1109.1867,-122 932.8133,-122 932.8133,-86 1109.1867,-86 1109.1867,-122"/>
<text text-anchor="middle" x="1021" y="-99.8" font-family="Times,serif" font-size="14.00" fill="#000000">AccordionGroupComponent</text>
</g>
<!-- ConfigurationModule -->
<g id="node5" class="node">
<title>ConfigurationModule</title>
<polygon fill="#8dd3c7" stroke="#000000" points="555.094,-187 552.094,-191 531.094,-191 528.094,-187 416.906,-187 416.906,-151 555.094,-151 555.094,-187"/>
<text text-anchor="middle" x="486" y="-164.8" font-family="Times,serif" font-size="14.00" fill="#000000">ConfigurationModule</text>
</g>
<!-- AccordionGroupComponent&#45;&gt;ConfigurationModule -->
<g id="edge1" class="edge">
<title>AccordionGroupComponent&#45;&gt;ConfigurationModule</title>
<path fill="none" stroke="#000000" d="M1021,-122.2843C1021,-143.3211 1021,-175 1021,-175 1021,-175 565.1198,-175 565.1198,-175"/>
<polygon fill="#000000" stroke="#000000" points="565.1199,-171.5001 555.1198,-175 565.1198,-178.5001 565.1199,-171.5001"/>
</g>
<!-- CmsProductConfigurationComponent -->
<g id="node2" class="node">
<title>CmsProductConfigurationComponent</title>
<polygon fill="#ffffb3" stroke="#000000" points="914.5968,-122 685.4032,-122 685.4032,-86 914.5968,-86 914.5968,-122"/>
<text text-anchor="middle" x="800" y="-99.8" font-family="Times,serif" font-size="14.00" fill="#000000">CmsProductConfigurationComponent</text>
</g>
<!-- CmsProductConfigurationComponent&#45;&gt;ConfigurationModule -->
<g id="edge2" class="edge">
<title>CmsProductConfigurationComponent&#45;&gt;ConfigurationModule</title>
<path fill="none" stroke="#000000" d="M800,-122.0225C800,-139.3734 800,-163 800,-163 800,-163 565.2974,-163 565.2974,-163"/>
<polygon fill="#000000" stroke="#000000" points="565.2974,-159.5001 555.2974,-163 565.2973,-166.5001 565.2974,-159.5001"/>
</g>
<!-- ProductAttributeComponent -->
<g id="node3" class="node">
<title>ProductAttributeComponent</title>
<polygon fill="#ffffb3" stroke="#000000" points="667.9255,-122 492.0745,-122 492.0745,-86 667.9255,-86 667.9255,-122"/>
<text text-anchor="middle" x="580" y="-99.8" font-family="Times,serif" font-size="14.00" fill="#000000">ProductAttributeComponent</text>
</g>
<!-- ProductAttributeComponent&#45;&gt;ConfigurationModule -->
<g id="edge3" class="edge">
<title>ProductAttributeComponent&#45;&gt;ConfigurationModule</title>
<path fill="none" stroke="#000000" d="M523.6673,-122.1061C523.6673,-122.1061 523.6673,-140.991 523.6673,-140.991"/>
<polygon fill="#000000" stroke="#000000" points="520.1673,-140.9909 523.6673,-150.991 527.1673,-140.991 520.1673,-140.9909"/>
</g>
<!-- ProductOptionComponent -->
<g id="node4" class="node">
<title>ProductOptionComponent</title>
<polygon fill="#ffffb3" stroke="#000000" points="473.7688,-122 310.2312,-122 310.2312,-86 473.7688,-86 473.7688,-122"/>
<text text-anchor="middle" x="392" y="-99.8" font-family="Times,serif" font-size="14.00" fill="#000000">ProductOptionComponent</text>
</g>
<!-- ProductOptionComponent&#45;&gt;ConfigurationModule -->
<g id="edge4" class="edge">
<title>ProductOptionComponent&#45;&gt;ConfigurationModule</title>
<path fill="none" stroke="#000000" d="M445.4187,-122.1061C445.4187,-122.1061 445.4187,-140.991 445.4187,-140.991"/>
<polygon fill="#000000" stroke="#000000" points="441.9187,-140.9909 445.4187,-150.991 448.9187,-140.991 441.9187,-140.9909"/>
</g>
<!-- CmsProductConfigurationComponent  -->
<g id="node8" class="node">
<title>CmsProductConfigurationComponent </title>
<polygon fill="#fb8072" stroke="#000000" points="602.0971,-252 369.9029,-252 369.9029,-216 602.0971,-216 602.0971,-252"/>
<text text-anchor="middle" x="486" y="-229.8" font-family="Times,serif" font-size="14.00" fill="#000000">CmsProductConfigurationComponent </text>
</g>
<!-- ConfigurationModule&#45;&gt;CmsProductConfigurationComponent  -->
<g id="edge7" class="edge">
<title>ConfigurationModule&#45;&gt;CmsProductConfigurationComponent </title>
<path fill="none" stroke="#000000" stroke-dasharray="5,2" d="M486,-187.1061C486,-187.1061 486,-205.991 486,-205.991"/>
<polygon fill="#000000" stroke="#000000" points="482.5001,-205.9909 486,-215.991 489.5001,-205.991 482.5001,-205.9909"/>
</g>
<!-- ConstraintRuleModule -->
<g id="node6" class="node">
<title>ConstraintRuleModule</title>
<polygon fill="#8dd3c7" stroke="#000000" points="286.3202,-122 283.3202,-126 262.3202,-126 259.3202,-122 141.6798,-122 141.6798,-86 286.3202,-86 286.3202,-122"/>
<text text-anchor="middle" x="214" y="-99.8" font-family="Times,serif" font-size="14.00" fill="#000000">ConstraintRuleModule</text>
</g>
<!-- ConstraintRuleModule&#45;&gt;ConfigurationModule -->
<g id="edge5" class="edge">
<title>ConstraintRuleModule&#45;&gt;ConfigurationModule</title>
<path fill="none" stroke="#000000" d="M214,-122.0225C214,-139.3734 214,-163 214,-163 214,-163 406.6591,-163 406.6591,-163"/>
<polygon fill="#000000" stroke="#000000" points="406.6592,-166.5001 416.6591,-163 406.6591,-159.5001 406.6592,-166.5001"/>
</g>
<!-- PricingModule -->
<g id="node7" class="node">
<title>PricingModule</title>
<polygon fill="#8dd3c7" stroke="#000000" points="123.9888,-122 120.9888,-126 99.9888,-126 96.9888,-122 24.0112,-122 24.0112,-86 123.9888,-86 123.9888,-122"/>
<text text-anchor="middle" x="74" y="-99.8" font-family="Times,serif" font-size="14.00" fill="#000000">PricingModule</text>
</g>
<!-- PricingModule&#45;&gt;ConfigurationModule -->
<g id="edge6" class="edge">
<title>PricingModule&#45;&gt;ConfigurationModule</title>
<path fill="none" stroke="#000000" d="M74,-122.2843C74,-143.3211 74,-175 74,-175 74,-175 406.5757,-175 406.5757,-175"/>
<polygon fill="#000000" stroke="#000000" points="406.5757,-178.5001 416.5757,-175 406.5757,-171.5001 406.5757,-178.5001"/>
</g>
</g>
</svg>
